<svg width="34" height="22" viewBox="0 0 34 22" fill="none" xmlns="http://www.w3.org/2000/svg">
<path fill-rule="evenodd" clip-rule="evenodd" d="M33.875 1.25C33.875 1.87132 33.3713 2.375 32.75 2.375L2 2.375C1.37868 2.375 0.875 1.87132 0.875 1.25C0.875 0.62868 1.37868 0.125 2 0.125L32.75 0.125C33.3713 0.125 33.875 0.62868 33.875 1.25Z" fill="white"/>
<path fill-rule="evenodd" clip-rule="evenodd" d="M0.875 20.75C0.875 20.1287 1.37868 19.625 2 19.625L32.75 19.625C33.3713 19.625 33.875 20.1287 33.875 20.75C33.875 21.3713 33.3713 21.875 32.75 21.875L2 21.875C1.37868 21.875 0.875 21.3713 0.875 20.75Z" fill="white"/>
<path fill-rule="evenodd" clip-rule="evenodd" d="M0.875 11C0.875 10.3787 1.37868 9.875 2 9.875H32.75C33.3713 9.875 33.875 10.3787 33.875 11C33.875 11.6213 33.3713 12.125 32.75 12.125L2 12.125C1.37868 12.125 0.875 11.6213 0.875 11Z" fill="white"/>
</svg>
