<svg width="689" height="218" viewBox="0 0 689 218" fill="none" xmlns="http://www.w3.org/2000/svg">
<g filter="url(#filter0_d_863_4393)">
<rect x="10" y="6" width="669" height="205" rx="15" fill="white"/>
</g>
<path d="M62.424 53.248V65.008C62.424 66.64 61.952 67.912 61.008 68.824C60.064 69.72 58.8 70.168 57.216 70.168C55.616 70.168 54.32 69.704 53.328 68.776C52.352 67.848 51.864 66.552 51.864 64.888H55.224C55.24 65.608 55.408 66.168 55.728 66.568C56.064 66.968 56.544 67.168 57.168 67.168C57.776 67.168 58.24 66.976 58.56 66.592C58.88 66.208 59.04 65.68 59.04 65.008V53.248H62.424ZM71.7675 70.216C70.4875 70.216 69.3355 69.936 68.3115 69.376C67.2875 68.8 66.4795 67.992 65.8875 66.952C65.3115 65.912 65.0235 64.712 65.0235 63.352C65.0235 61.992 65.3195 60.792 65.9115 59.752C66.5195 58.712 67.3435 57.912 68.3835 57.352C69.4235 56.776 70.5835 56.488 71.8635 56.488C73.1435 56.488 74.3035 56.776 75.3435 57.352C76.3835 57.912 77.1995 58.712 77.7915 59.752C78.3995 60.792 78.7035 61.992 78.7035 63.352C78.7035 64.712 78.3915 65.912 77.7675 66.952C77.1595 67.992 76.3275 68.8 75.2715 69.376C74.2315 69.936 73.0635 70.216 71.7675 70.216ZM71.7675 67.288C72.3755 67.288 72.9435 67.144 73.4715 66.856C74.0155 66.552 74.4475 66.104 74.7675 65.512C75.0875 64.92 75.2475 64.2 75.2475 63.352C75.2475 62.088 74.9115 61.12 74.2395 60.448C73.5835 59.76 72.7755 59.416 71.8155 59.416C70.8555 59.416 70.0475 59.76 69.3915 60.448C68.7515 61.12 68.4315 62.088 68.4315 63.352C68.4315 64.616 68.7435 65.592 69.3675 66.28C70.0075 66.952 70.8075 67.288 71.7675 67.288ZM84.0482 58.648C84.4802 58.008 85.0722 57.488 85.8242 57.088C86.5922 56.688 87.4642 56.488 88.4402 56.488C89.5762 56.488 90.6002 56.768 91.5122 57.328C92.4402 57.888 93.1682 58.688 93.6962 59.728C94.2402 60.752 94.5122 61.944 94.5122 63.304C94.5122 64.664 94.2402 65.872 93.6962 66.928C93.1682 67.968 92.4402 68.776 91.5122 69.352C90.6002 69.928 89.5762 70.216 88.4402 70.216C87.4482 70.216 86.5762 70.024 85.8242 69.64C85.0882 69.24 84.4962 68.728 84.0482 68.104V70H80.6882V52.24H84.0482V58.648ZM91.0802 63.304C91.0802 62.504 90.9122 61.816 90.5762 61.24C90.2562 60.648 89.8242 60.2 89.2802 59.896C88.7522 59.592 88.1762 59.44 87.5522 59.44C86.9442 59.44 86.3682 59.6 85.8242 59.92C85.2962 60.224 84.8642 60.672 84.5282 61.264C84.2082 61.856 84.0482 62.552 84.0482 63.352C84.0482 64.152 84.2082 64.848 84.5282 65.44C84.8642 66.032 85.2962 66.488 85.8242 66.808C86.3682 67.112 86.9442 67.264 87.5522 67.264C88.1762 67.264 88.7522 67.104 89.2802 66.784C89.8242 66.464 90.2562 66.008 90.5762 65.416C90.9122 64.824 91.0802 64.12 91.0802 63.304ZM111.985 66.808H105.313L104.209 70H100.681L106.705 53.224H110.617L116.641 70H113.089L111.985 66.808ZM111.073 64.12L108.649 57.112L106.225 64.12H111.073ZM125.78 56.512C127.364 56.512 128.644 57.016 129.62 58.024C130.596 59.016 131.084 60.408 131.084 62.2V70H127.724V62.656C127.724 61.6 127.46 60.792 126.932 60.232C126.404 59.656 125.684 59.368 124.772 59.368C123.844 59.368 123.108 59.656 122.564 60.232C122.036 60.792 121.772 61.6 121.772 62.656V70H118.412V56.704H121.772V58.36C122.22 57.784 122.788 57.336 123.476 57.016C124.18 56.68 124.948 56.512 125.78 56.512ZM132.935 63.304C132.935 61.96 133.199 60.768 133.727 59.728C134.271 58.688 134.999 57.888 135.911 57.328C136.839 56.768 137.871 56.488 139.007 56.488C139.999 56.488 140.863 56.688 141.599 57.088C142.351 57.488 142.951 57.992 143.399 58.6V56.704H146.783V70H143.399V68.056C142.967 68.68 142.367 69.2 141.599 69.616C140.847 70.016 139.975 70.216 138.983 70.216C137.863 70.216 136.839 69.928 135.911 69.352C134.999 68.776 134.271 67.968 133.727 66.928C133.199 65.872 132.935 64.664 132.935 63.304ZM143.399 63.352C143.399 62.536 143.239 61.84 142.919 61.264C142.599 60.672 142.167 60.224 141.623 59.92C141.079 59.6 140.495 59.44 139.871 59.44C139.247 59.44 138.671 59.592 138.143 59.896C137.615 60.2 137.183 60.648 136.847 61.24C136.527 61.816 136.367 62.504 136.367 63.304C136.367 64.104 136.527 64.808 136.847 65.416C137.183 66.008 137.615 66.464 138.143 66.784C138.687 67.104 139.263 67.264 139.871 67.264C140.495 67.264 141.079 67.112 141.623 66.808C142.167 66.488 142.599 66.04 142.919 65.464C143.239 64.872 143.399 64.168 143.399 63.352ZM152.945 52.24V70H149.585V52.24H152.945ZM168.505 56.704L160.273 76.288H156.697L159.577 69.664L154.249 56.704H158.017L161.449 65.992L164.929 56.704H168.505ZM174.924 70.216C173.836 70.216 172.86 70.024 171.996 69.64C171.132 69.24 170.444 68.704 169.932 68.032C169.436 67.36 169.164 66.616 169.116 65.8H172.5C172.564 66.312 172.812 66.736 173.244 67.072C173.692 67.408 174.244 67.576 174.9 67.576C175.54 67.576 176.036 67.448 176.388 67.192C176.756 66.936 176.94 66.608 176.94 66.208C176.94 65.776 176.716 65.456 176.268 65.248C175.836 65.024 175.14 64.784 174.18 64.528C173.188 64.288 172.372 64.04 171.732 63.784C171.108 63.528 170.564 63.136 170.1 62.608C169.652 62.08 169.428 61.368 169.428 60.472C169.428 59.736 169.636 59.064 170.052 58.456C170.484 57.848 171.092 57.368 171.876 57.016C172.676 56.664 173.612 56.488 174.684 56.488C176.268 56.488 177.532 56.888 178.476 57.688C179.42 58.472 179.94 59.536 180.036 60.88H176.82C176.772 60.352 176.548 59.936 176.148 59.632C175.764 59.312 175.244 59.152 174.588 59.152C173.98 59.152 173.508 59.264 173.172 59.488C172.852 59.712 172.692 60.024 172.692 60.424C172.692 60.872 172.916 61.216 173.364 61.456C173.812 61.68 174.508 61.912 175.452 62.152C176.412 62.392 177.204 62.64 177.828 62.896C178.452 63.152 178.988 63.552 179.436 64.096C179.9 64.624 180.14 65.328 180.156 66.208C180.156 66.976 179.94 67.664 179.508 68.272C179.092 68.88 178.484 69.36 177.684 69.712C176.9 70.048 175.98 70.216 174.924 70.216ZM184.138 55.12C183.546 55.12 183.05 54.936 182.65 54.568C182.266 54.184 182.074 53.712 182.074 53.152C182.074 52.592 182.266 52.128 182.65 51.76C183.05 51.376 183.546 51.184 184.138 51.184C184.73 51.184 185.218 51.376 185.602 51.76C186.002 52.128 186.202 52.592 186.202 53.152C186.202 53.712 186.002 54.184 185.602 54.568C185.218 54.936 184.73 55.12 184.138 55.12ZM185.794 56.704V70H182.434V56.704H185.794ZM193.722 70.216C192.634 70.216 191.658 70.024 190.794 69.64C189.93 69.24 189.242 68.704 188.73 68.032C188.234 67.36 187.962 66.616 187.914 65.8H191.298C191.362 66.312 191.61 66.736 192.042 67.072C192.49 67.408 193.042 67.576 193.698 67.576C194.338 67.576 194.834 67.448 195.186 67.192C195.554 66.936 195.738 66.608 195.738 66.208C195.738 65.776 195.514 65.456 195.066 65.248C194.634 65.024 193.938 64.784 192.978 64.528C191.986 64.288 191.17 64.04 190.53 63.784C189.906 63.528 189.362 63.136 188.898 62.608C188.45 62.08 188.226 61.368 188.226 60.472C188.226 59.736 188.434 59.064 188.85 58.456C189.282 57.848 189.89 57.368 190.674 57.016C191.474 56.664 192.41 56.488 193.482 56.488C195.066 56.488 196.33 56.888 197.274 57.688C198.218 58.472 198.738 59.536 198.834 60.88H195.618C195.57 60.352 195.346 59.936 194.946 59.632C194.562 59.312 194.042 59.152 193.386 59.152C192.778 59.152 192.306 59.264 191.97 59.488C191.65 59.712 191.49 60.024 191.49 60.424C191.49 60.872 191.714 61.216 192.162 61.456C192.61 61.68 193.306 61.912 194.25 62.152C195.21 62.392 196.002 62.64 196.626 62.896C197.25 63.152 197.786 63.552 198.234 64.096C198.698 64.624 198.938 65.328 198.954 66.208C198.954 66.976 198.738 67.664 198.306 68.272C197.89 68.88 197.282 69.36 196.482 69.712C195.698 70.048 194.778 70.216 193.722 70.216Z" fill="#15192C"/>
<path d="M233.336 60.27V61.572H230.746V70H229.15V61.572H226.546V60.27H233.336ZM238.298 70.126C237.57 70.126 236.912 69.9627 236.324 69.636C235.736 69.3 235.274 68.8333 234.938 68.236C234.602 67.6293 234.434 66.9293 234.434 66.136C234.434 65.352 234.607 64.6567 234.952 64.05C235.298 63.4433 235.769 62.9767 236.366 62.65C236.964 62.3233 237.631 62.16 238.368 62.16C239.106 62.16 239.773 62.3233 240.37 62.65C240.968 62.9767 241.439 63.4433 241.784 64.05C242.13 64.6567 242.302 65.352 242.302 66.136C242.302 66.92 242.125 67.6153 241.77 68.222C241.416 68.8287 240.93 69.3 240.314 69.636C239.708 69.9627 239.036 70.126 238.298 70.126ZM238.298 68.74C238.709 68.74 239.092 68.642 239.446 68.446C239.81 68.25 240.104 67.956 240.328 67.564C240.552 67.172 240.664 66.696 240.664 66.136C240.664 65.576 240.557 65.1047 240.342 64.722C240.128 64.33 239.843 64.036 239.488 63.84C239.134 63.644 238.751 63.546 238.34 63.546C237.93 63.546 237.547 63.644 237.192 63.84C236.847 64.036 236.572 64.33 236.366 64.722C236.161 65.1047 236.058 65.576 236.058 66.136C236.058 66.9667 236.268 67.6107 236.688 68.068C237.118 68.516 237.654 68.74 238.298 68.74ZM245.742 63.588V67.858C245.742 68.1473 245.807 68.3573 245.938 68.488C246.078 68.6093 246.311 68.67 246.638 68.67H247.618V70H246.358C245.639 70 245.089 69.832 244.706 69.496C244.323 69.16 244.132 68.614 244.132 67.858V63.588H243.222V62.286H244.132V60.368H245.742V62.286H247.618V63.588H245.742ZM248.557 66.108C248.557 65.3333 248.716 64.6473 249.033 64.05C249.36 63.4527 249.798 62.9907 250.349 62.664C250.909 62.328 251.525 62.16 252.197 62.16C252.804 62.16 253.331 62.2813 253.779 62.524C254.236 62.7573 254.6 63.0513 254.871 63.406V62.286H256.481V70H254.871V68.852C254.6 69.216 254.232 69.5193 253.765 69.762C253.298 70.0047 252.766 70.126 252.169 70.126C251.506 70.126 250.9 69.958 250.349 69.622C249.798 69.2767 249.36 68.8007 249.033 68.194C248.716 67.578 248.557 66.8827 248.557 66.108ZM254.871 66.136C254.871 65.604 254.759 65.142 254.535 64.75C254.32 64.358 254.036 64.0593 253.681 63.854C253.326 63.6487 252.944 63.546 252.533 63.546C252.122 63.546 251.74 63.6487 251.385 63.854C251.03 64.05 250.741 64.344 250.517 64.736C250.302 65.1187 250.195 65.576 250.195 66.108C250.195 66.64 250.302 67.1067 250.517 67.508C250.741 67.9093 251.03 68.2173 251.385 68.432C251.749 68.6373 252.132 68.74 252.533 68.74C252.944 68.74 253.326 68.6373 253.681 68.432C254.036 68.2267 254.32 67.928 254.535 67.536C254.759 67.1347 254.871 66.668 254.871 66.136ZM260.173 59.64V70H258.577V59.64H260.173ZM267.501 63.42C267.772 63.0653 268.141 62.7667 268.607 62.524C269.074 62.2813 269.601 62.16 270.189 62.16C270.861 62.16 271.473 62.328 272.023 62.664C272.583 62.9907 273.022 63.4527 273.339 64.05C273.657 64.6473 273.815 65.3333 273.815 66.108C273.815 66.8827 273.657 67.578 273.339 68.194C273.022 68.8007 272.583 69.2767 272.023 69.622C271.473 69.958 270.861 70.126 270.189 70.126C269.601 70.126 269.079 70.0093 268.621 69.776C268.164 69.5333 267.791 69.2347 267.501 68.88V73.668H265.905V62.286H267.501V63.42ZM272.191 66.108C272.191 65.576 272.079 65.1187 271.855 64.736C271.641 64.344 271.351 64.05 270.987 63.854C270.633 63.6487 270.25 63.546 269.839 63.546C269.438 63.546 269.055 63.6487 268.691 63.854C268.337 64.0593 268.047 64.358 267.823 64.75C267.609 65.142 267.501 65.604 267.501 66.136C267.501 66.668 267.609 67.1347 267.823 67.536C268.047 67.928 268.337 68.2267 268.691 68.432C269.055 68.6373 269.438 68.74 269.839 68.74C270.25 68.74 270.633 68.6373 270.987 68.432C271.351 68.2173 271.641 67.9093 271.855 67.508C272.079 67.1067 272.191 66.64 272.191 66.108ZM276.99 63.406C277.223 63.014 277.531 62.7107 277.914 62.496C278.306 62.272 278.768 62.16 279.3 62.16V63.812H278.894C278.268 63.812 277.792 63.9707 277.466 64.288C277.148 64.6053 276.99 65.156 276.99 65.94V70H275.394V62.286H276.99V63.406ZM284.113 70.126C283.385 70.126 282.727 69.9627 282.139 69.636C281.551 69.3 281.089 68.8333 280.753 68.236C280.417 67.6293 280.249 66.9293 280.249 66.136C280.249 65.352 280.421 64.6567 280.767 64.05C281.112 63.4433 281.583 62.9767 282.181 62.65C282.778 62.3233 283.445 62.16 284.183 62.16C284.92 62.16 285.587 62.3233 286.185 62.65C286.782 62.9767 287.253 63.4433 287.599 64.05C287.944 64.6567 288.117 65.352 288.117 66.136C288.117 66.92 287.939 67.6153 287.585 68.222C287.23 68.8287 286.745 69.3 286.129 69.636C285.522 69.9627 284.85 70.126 284.113 70.126ZM284.113 68.74C284.523 68.74 284.906 68.642 285.261 68.446C285.625 68.25 285.919 67.956 286.143 67.564C286.367 67.172 286.479 66.696 286.479 66.136C286.479 65.576 286.371 65.1047 286.157 64.722C285.942 64.33 285.657 64.036 285.303 63.84C284.948 63.644 284.565 63.546 284.155 63.546C283.744 63.546 283.361 63.644 283.007 63.84C282.661 64.036 282.386 64.33 282.181 64.722C281.975 65.1047 281.873 65.576 281.873 66.136C281.873 66.9667 282.083 67.6107 282.503 68.068C282.932 68.516 283.469 68.74 284.113 68.74ZM292.929 63.588H291.501V70H289.891V63.588H288.981V62.286H289.891V61.74C289.891 60.8533 290.124 60.2093 290.591 59.808C291.067 59.3973 291.809 59.192 292.817 59.192V60.522C292.331 60.522 291.991 60.6153 291.795 60.802C291.599 60.9793 291.501 61.292 291.501 61.74V62.286H292.929V63.588ZM295.155 61.264C294.866 61.264 294.623 61.166 294.427 60.97C294.231 60.774 294.133 60.5313 294.133 60.242C294.133 59.9527 294.231 59.71 294.427 59.514C294.623 59.318 294.866 59.22 295.155 59.22C295.435 59.22 295.673 59.318 295.869 59.514C296.065 59.71 296.163 59.9527 296.163 60.242C296.163 60.5313 296.065 60.774 295.869 60.97C295.673 61.166 295.435 61.264 295.155 61.264ZM295.939 62.286V70H294.343V62.286H295.939ZM299.896 63.588V67.858C299.896 68.1473 299.962 68.3573 300.092 68.488C300.232 68.6093 300.466 68.67 300.792 68.67H301.772V70H300.512C299.794 70 299.243 69.832 298.86 69.496C298.478 69.16 298.286 68.614 298.286 67.858V63.588H297.376V62.286H298.286V60.368H299.896V62.286H301.772V63.588H299.896ZM309.988 62.16C310.585 62.16 311.113 62.2813 311.57 62.524C312.037 62.7573 312.401 63.0513 312.662 63.406V62.286H314.272V70.126C314.272 70.8353 314.123 71.4653 313.824 72.016C313.525 72.576 313.091 73.0147 312.522 73.332C311.962 73.6493 311.29 73.808 310.506 73.808C309.461 73.808 308.593 73.5607 307.902 73.066C307.211 72.5807 306.819 71.918 306.726 71.078H308.308C308.429 71.4793 308.686 71.8013 309.078 72.044C309.479 72.296 309.955 72.422 310.506 72.422C311.15 72.422 311.668 72.226 312.06 71.834C312.461 71.442 312.662 70.8727 312.662 70.126V68.838C312.391 69.202 312.023 69.51 311.556 69.762C311.099 70.0047 310.576 70.126 309.988 70.126C309.316 70.126 308.7 69.958 308.14 69.622C307.589 69.2767 307.151 68.8007 306.824 68.194C306.507 67.578 306.348 66.8827 306.348 66.108C306.348 65.3333 306.507 64.6473 306.824 64.05C307.151 63.4527 307.589 62.9907 308.14 62.664C308.7 62.328 309.316 62.16 309.988 62.16ZM312.662 66.136C312.662 65.604 312.55 65.142 312.326 64.75C312.111 64.358 311.827 64.0593 311.472 63.854C311.117 63.6487 310.735 63.546 310.324 63.546C309.913 63.546 309.531 63.6487 309.176 63.854C308.821 64.05 308.532 64.344 308.308 64.736C308.093 65.1187 307.986 65.576 307.986 66.108C307.986 66.64 308.093 67.1067 308.308 67.508C308.532 67.9093 308.821 68.2173 309.176 68.432C309.54 68.6373 309.923 68.74 310.324 68.74C310.735 68.74 311.117 68.6373 311.472 68.432C311.827 68.2267 312.111 67.928 312.326 67.536C312.55 67.1347 312.662 66.668 312.662 66.136ZM317.964 63.406C318.198 63.014 318.506 62.7107 318.888 62.496C319.28 62.272 319.742 62.16 320.274 62.16V63.812H319.868C319.243 63.812 318.767 63.9707 318.44 64.288C318.123 64.6053 317.964 65.156 317.964 65.94V70H316.368V62.286H317.964V63.406ZM325.087 70.126C324.359 70.126 323.701 69.9627 323.113 69.636C322.525 69.3 322.063 68.8333 321.727 68.236C321.391 67.6293 321.223 66.9293 321.223 66.136C321.223 65.352 321.396 64.6567 321.741 64.05C322.087 63.4433 322.558 62.9767 323.155 62.65C323.753 62.3233 324.42 62.16 325.157 62.16C325.895 62.16 326.562 62.3233 327.159 62.65C327.757 62.9767 328.228 63.4433 328.573 64.05C328.919 64.6567 329.091 65.352 329.091 66.136C329.091 66.92 328.914 67.6153 328.559 68.222C328.205 68.8287 327.719 69.3 327.103 69.636C326.497 69.9627 325.825 70.126 325.087 70.126ZM325.087 68.74C325.498 68.74 325.881 68.642 326.235 68.446C326.599 68.25 326.893 67.956 327.117 67.564C327.341 67.172 327.453 66.696 327.453 66.136C327.453 65.576 327.346 65.1047 327.131 64.722C326.917 64.33 326.632 64.036 326.277 63.84C325.923 63.644 325.54 63.546 325.129 63.546C324.719 63.546 324.336 63.644 323.981 63.84C323.636 64.036 323.361 64.33 323.155 64.722C322.95 65.1047 322.847 65.576 322.847 66.136C322.847 66.9667 323.057 67.6107 323.477 68.068C323.907 68.516 324.443 68.74 325.087 68.74ZM341.029 62.286L338.635 70H336.955L335.401 64.302L333.847 70H332.167L329.759 62.286H331.383L332.993 68.488L334.631 62.286H336.297L337.865 68.46L339.461 62.286H341.029ZM344.084 63.588V67.858C344.084 68.1473 344.149 68.3573 344.28 68.488C344.42 68.6093 344.653 68.67 344.98 68.67H345.96V70H344.7C343.981 70 343.431 69.832 343.048 69.496C342.665 69.16 342.474 68.614 342.474 67.858V63.588H341.564V62.286H342.474V60.368H344.084V62.286H345.96V63.588H344.084ZM351.421 62.16C352.009 62.16 352.532 62.286 352.989 62.538C353.456 62.79 353.82 63.1633 354.081 63.658C354.352 64.1527 354.487 64.75 354.487 65.45V70H352.905V65.688C352.905 64.9973 352.732 64.47 352.387 64.106C352.042 63.7327 351.57 63.546 350.973 63.546C350.376 63.546 349.9 63.7327 349.545 64.106C349.2 64.47 349.027 64.9973 349.027 65.688V70H347.431V59.64H349.027V63.182C349.298 62.8553 349.638 62.6033 350.049 62.426C350.469 62.2487 350.926 62.16 351.421 62.16ZM363.505 70.126C362.777 70.126 362.119 69.9627 361.531 69.636C360.943 69.3 360.481 68.8333 360.145 68.236C359.809 67.6293 359.641 66.9293 359.641 66.136C359.641 65.352 359.814 64.6567 360.159 64.05C360.505 63.4433 360.976 62.9767 361.573 62.65C362.171 62.3233 362.838 62.16 363.575 62.16C364.313 62.16 364.98 62.3233 365.577 62.65C366.175 62.9767 366.646 63.4433 366.991 64.05C367.337 64.6567 367.509 65.352 367.509 66.136C367.509 66.92 367.332 67.6153 366.977 68.222C366.623 68.8287 366.137 69.3 365.521 69.636C364.915 69.9627 364.243 70.126 363.505 70.126ZM363.505 68.74C363.916 68.74 364.299 68.642 364.653 68.446C365.017 68.25 365.311 67.956 365.535 67.564C365.759 67.172 365.871 66.696 365.871 66.136C365.871 65.576 365.764 65.1047 365.549 64.722C365.335 64.33 365.05 64.036 364.695 63.84C364.341 63.644 363.958 63.546 363.547 63.546C363.137 63.546 362.754 63.644 362.399 63.84C362.054 64.036 361.779 64.33 361.573 64.722C361.368 65.1047 361.265 65.576 361.265 66.136C361.265 66.9667 361.475 67.6107 361.895 68.068C362.325 68.516 362.861 68.74 363.505 68.74ZM372.321 63.588H370.893V70H369.283V63.588H368.373V62.286H369.283V61.74C369.283 60.8533 369.516 60.2093 369.983 59.808C370.459 59.3973 371.201 59.192 372.209 59.192V60.522C371.724 60.522 371.383 60.6153 371.187 60.802C370.991 60.9793 370.893 61.292 370.893 61.74V62.286H372.321V63.588ZM378.044 67.83C378.94 67.0553 379.645 66.4207 380.158 65.926C380.681 65.422 381.115 64.8993 381.46 64.358C381.806 63.8167 381.978 63.2753 381.978 62.734C381.978 62.174 381.843 61.7353 381.572 61.418C381.311 61.1007 380.896 60.942 380.326 60.942C379.776 60.942 379.346 61.1193 379.038 61.474C378.74 61.8193 378.581 62.286 378.562 62.874H377.022C377.05 61.81 377.368 60.998 377.974 60.438C378.59 59.8687 379.37 59.584 380.312 59.584C381.33 59.584 382.123 59.864 382.692 60.424C383.271 60.984 383.56 61.7307 383.56 62.664C383.56 63.336 383.388 63.9847 383.042 64.61C382.706 65.226 382.3 65.7813 381.824 66.276C381.358 66.7613 380.76 67.326 380.032 67.97L379.402 68.53H383.84V69.86H377.036V68.698L378.044 67.83ZM391.822 61.166H387.132V63.952C387.328 63.6907 387.618 63.4713 388 63.294C388.392 63.1167 388.808 63.028 389.246 63.028C390.03 63.028 390.665 63.196 391.15 63.532C391.645 63.868 391.995 64.2927 392.2 64.806C392.415 65.3193 392.522 65.8607 392.522 66.43C392.522 67.1207 392.387 67.7367 392.116 68.278C391.855 68.81 391.458 69.23 390.926 69.538C390.404 69.846 389.76 70 388.994 70C387.977 70 387.16 69.748 386.544 69.244C385.928 68.74 385.56 68.0727 385.438 67.242H386.992C387.095 67.6807 387.324 68.0307 387.678 68.292C388.033 68.544 388.476 68.67 389.008 68.67C389.671 68.67 390.166 68.4693 390.492 68.068C390.828 67.6667 390.996 67.1347 390.996 66.472C390.996 65.8 390.828 65.2867 390.492 64.932C390.156 64.568 389.662 64.386 389.008 64.386C388.551 64.386 388.164 64.5027 387.846 64.736C387.538 64.96 387.314 65.268 387.174 65.66H385.662V59.766H391.822V61.166ZM393.932 62.258C393.932 61.5767 394.128 61.0447 394.52 60.662C394.921 60.27 395.434 60.074 396.06 60.074C396.685 60.074 397.194 60.27 397.586 60.662C397.987 61.0447 398.188 61.5767 398.188 62.258C398.188 62.9393 397.987 63.476 397.586 63.868C397.194 64.26 396.685 64.456 396.06 64.456C395.434 64.456 394.921 64.26 394.52 63.868C394.128 63.476 393.932 62.9393 393.932 62.258ZM402.472 60.256L396.886 70H395.318L400.904 60.256H402.472ZM396.06 61.04C395.472 61.04 395.178 61.446 395.178 62.258C395.178 63.0793 395.472 63.49 396.06 63.49C396.34 63.49 396.554 63.392 396.704 63.196C396.862 62.9907 396.942 62.678 396.942 62.258C396.942 61.446 396.648 61.04 396.06 61.04ZM399.63 67.984C399.63 67.3027 399.826 66.7707 400.218 66.388C400.619 65.996 401.132 65.8 401.758 65.8C402.374 65.8 402.878 65.996 403.27 66.388C403.671 66.7707 403.872 67.3027 403.872 67.984C403.872 68.6653 403.671 69.202 403.27 69.594C402.878 69.986 402.374 70.182 401.758 70.182C401.132 70.182 400.619 69.986 400.218 69.594C399.826 69.202 399.63 68.6653 399.63 67.984ZM401.744 66.766C401.156 66.766 400.862 67.172 400.862 67.984C400.862 68.796 401.156 69.202 401.744 69.202C402.332 69.202 402.626 68.796 402.626 67.984C402.626 67.172 402.332 66.766 401.744 66.766Z" fill="#92959E"/>
<path d="M69.7477 147.812C69.7477 146.996 69.9357 146.264 70.3117 145.616C70.6957 144.968 71.2117 144.464 71.8597 144.104C72.5157 143.736 73.2317 143.552 74.0077 143.552C74.8957 143.552 75.6837 143.772 76.3717 144.212C77.0677 144.644 77.5717 145.26 77.8837 146.06H76.2397C76.0237 145.62 75.7237 145.292 75.3397 145.076C74.9557 144.86 74.5117 144.752 74.0077 144.752C73.4557 144.752 72.9637 144.876 72.5317 145.124C72.0997 145.372 71.7597 145.728 71.5117 146.192C71.2717 146.656 71.1517 147.196 71.1517 147.812C71.1517 148.428 71.2717 148.968 71.5117 149.432C71.7597 149.896 72.0997 150.256 72.5317 150.512C72.9637 150.76 73.4557 150.884 74.0077 150.884C74.5117 150.884 74.9557 150.776 75.3397 150.56C75.7237 150.344 76.0237 150.016 76.2397 149.576H77.8837C77.5717 150.376 77.0677 150.992 76.3717 151.424C75.6837 151.856 74.8957 152.072 74.0077 152.072C73.2237 152.072 72.5077 151.892 71.8597 151.532C71.2117 151.164 70.6957 150.656 70.3117 150.008C69.9357 149.36 69.7477 148.628 69.7477 147.812ZM82.353 152.108C81.729 152.108 81.165 151.968 80.661 151.688C80.157 151.4 79.761 151 79.473 150.488C79.185 149.968 79.041 149.368 79.041 148.688C79.041 148.016 79.189 147.42 79.485 146.9C79.781 146.38 80.185 145.98 80.697 145.7C81.209 145.42 81.781 145.28 82.413 145.28C83.045 145.28 83.617 145.42 84.129 145.7C84.641 145.98 85.045 146.38 85.341 146.9C85.637 147.42 85.785 148.016 85.785 148.688C85.785 149.36 85.633 149.956 85.329 150.476C85.025 150.996 84.609 151.4 84.081 151.688C83.561 151.968 82.985 152.108 82.353 152.108ZM82.353 150.92C82.705 150.92 83.033 150.836 83.337 150.668C83.649 150.5 83.901 150.248 84.093 149.912C84.285 149.576 84.381 149.168 84.381 148.688C84.381 148.208 84.289 147.804 84.105 147.476C83.921 147.14 83.677 146.888 83.373 146.72C83.069 146.552 82.741 146.468 82.389 146.468C82.037 146.468 81.709 146.552 81.405 146.72C81.109 146.888 80.873 147.14 80.697 147.476C80.521 147.804 80.433 148.208 80.433 148.688C80.433 149.4 80.613 149.952 80.973 150.344C81.341 150.728 81.801 150.92 82.353 150.92ZM90.4733 145.28C90.9933 145.28 91.4573 145.388 91.8653 145.604C92.2813 145.82 92.6053 146.14 92.8373 146.564C93.0693 146.988 93.1853 147.5 93.1853 148.1V152H91.8293V148.304C91.8293 147.712 91.6813 147.26 91.3853 146.948C91.0893 146.628 90.6853 146.468 90.1733 146.468C89.6613 146.468 89.2533 146.628 88.9493 146.948C88.6533 147.26 88.5053 147.712 88.5053 148.304V152H87.1373V145.388H88.5053V146.144C88.7293 145.872 89.0133 145.66 89.3573 145.508C89.7093 145.356 90.0813 145.28 90.4733 145.28ZM97.4863 150.776L99.3583 145.388H100.81L98.2903 152H96.6583L94.1503 145.388H95.6143L97.4863 150.776ZM107.904 148.532C107.904 148.78 107.888 149.004 107.856 149.204H102.804C102.844 149.732 103.04 150.156 103.392 150.476C103.744 150.796 104.176 150.956 104.688 150.956C105.424 150.956 105.944 150.648 106.248 150.032H107.724C107.524 150.64 107.16 151.14 106.632 151.532C106.112 151.916 105.464 152.108 104.688 152.108C104.056 152.108 103.488 151.968 102.984 151.688C102.488 151.4 102.096 151 101.808 150.488C101.528 149.968 101.388 149.368 101.388 148.688C101.388 148.008 101.524 147.412 101.796 146.9C102.076 146.38 102.464 145.98 102.96 145.7C103.464 145.42 104.04 145.28 104.688 145.28C105.312 145.28 105.868 145.416 106.356 145.688C106.844 145.96 107.224 146.344 107.496 146.84C107.768 147.328 107.904 147.892 107.904 148.532ZM106.476 148.1C106.468 147.596 106.288 147.192 105.936 146.888C105.584 146.584 105.148 146.432 104.628 146.432C104.156 146.432 103.752 146.584 103.416 146.888C103.08 147.184 102.88 147.588 102.816 148.1H106.476ZM110.619 146.348C110.819 146.012 111.083 145.752 111.411 145.568C111.747 145.376 112.143 145.28 112.599 145.28V146.696H112.251C111.715 146.696 111.307 146.832 111.027 147.104C110.755 147.376 110.619 147.848 110.619 148.52V152H109.251V145.388H110.619V146.348ZM116.256 152.108C115.736 152.108 115.268 152.016 114.852 151.832C114.444 151.64 114.12 151.384 113.88 151.064C113.64 150.736 113.512 150.372 113.496 149.972H114.912C114.936 150.252 115.068 150.488 115.308 150.68C115.556 150.864 115.864 150.956 116.232 150.956C116.616 150.956 116.912 150.884 117.12 150.74C117.336 150.588 117.444 150.396 117.444 150.164C117.444 149.916 117.324 149.732 117.084 149.612C116.852 149.492 116.48 149.36 115.968 149.216C115.472 149.08 115.068 148.948 114.756 148.82C114.444 148.692 114.172 148.496 113.94 148.232C113.716 147.968 113.604 147.62 113.604 147.188C113.604 146.836 113.708 146.516 113.916 146.228C114.124 145.932 114.42 145.7 114.804 145.532C115.196 145.364 115.644 145.28 116.148 145.28C116.9 145.28 117.504 145.472 117.96 145.856C118.424 146.232 118.672 146.748 118.704 147.404H117.336C117.312 147.108 117.192 146.872 116.976 146.696C116.76 146.52 116.468 146.432 116.1 146.432C115.74 146.432 115.464 146.5 115.272 146.636C115.08 146.772 114.984 146.952 114.984 147.176C114.984 147.352 115.048 147.5 115.176 147.62C115.304 147.74 115.46 147.836 115.644 147.908C115.828 147.972 116.1 148.056 116.46 148.16C116.94 148.288 117.332 148.42 117.636 148.556C117.948 148.684 118.216 148.876 118.44 149.132C118.664 149.388 118.78 149.728 118.788 150.152C118.788 150.528 118.684 150.864 118.476 151.16C118.268 151.456 117.972 151.688 117.588 151.856C117.212 152.024 116.768 152.108 116.256 152.108ZM120.962 144.512C120.714 144.512 120.506 144.428 120.338 144.26C120.17 144.092 120.086 143.884 120.086 143.636C120.086 143.388 120.17 143.18 120.338 143.012C120.506 142.844 120.714 142.76 120.962 142.76C121.202 142.76 121.406 142.844 121.574 143.012C121.742 143.18 121.826 143.388 121.826 143.636C121.826 143.884 121.742 144.092 121.574 144.26C121.406 144.428 121.202 144.512 120.962 144.512ZM121.634 145.388V152H120.266V145.388H121.634ZM126.298 152.108C125.674 152.108 125.11 151.968 124.606 151.688C124.102 151.4 123.706 151 123.418 150.488C123.13 149.968 122.986 149.368 122.986 148.688C122.986 148.016 123.134 147.42 123.43 146.9C123.726 146.38 124.13 145.98 124.642 145.7C125.154 145.42 125.726 145.28 126.358 145.28C126.99 145.28 127.562 145.42 128.074 145.7C128.586 145.98 128.99 146.38 129.286 146.9C129.582 147.42 129.73 148.016 129.73 148.688C129.73 149.36 129.578 149.956 129.274 150.476C128.97 150.996 128.554 151.4 128.026 151.688C127.506 151.968 126.93 152.108 126.298 152.108ZM126.298 150.92C126.65 150.92 126.978 150.836 127.282 150.668C127.594 150.5 127.846 150.248 128.038 149.912C128.23 149.576 128.326 149.168 128.326 148.688C128.326 148.208 128.234 147.804 128.05 147.476C127.866 147.14 127.622 146.888 127.318 146.72C127.014 146.552 126.686 146.468 126.334 146.468C125.982 146.468 125.654 146.552 125.35 146.72C125.054 146.888 124.818 147.14 124.642 147.476C124.466 147.804 124.378 148.208 124.378 148.688C124.378 149.4 124.558 149.952 124.918 150.344C125.286 150.728 125.746 150.92 126.298 150.92ZM134.419 145.28C134.939 145.28 135.403 145.388 135.811 145.604C136.227 145.82 136.551 146.14 136.783 146.564C137.015 146.988 137.131 147.5 137.131 148.1V152H135.775V148.304C135.775 147.712 135.627 147.26 135.331 146.948C135.035 146.628 134.631 146.468 134.119 146.468C133.607 146.468 133.199 146.628 132.895 146.948C132.599 147.26 132.451 147.712 132.451 148.304V152H131.083V145.388H132.451V146.144C132.675 145.872 132.959 145.66 133.303 145.508C133.655 145.356 134.027 145.28 134.419 145.28ZM146.325 152L144.405 148.664H143.361V152H141.993V143.66H144.873C145.513 143.66 146.053 143.772 146.493 143.996C146.941 144.22 147.273 144.52 147.489 144.896C147.713 145.272 147.825 145.692 147.825 146.156C147.825 146.7 147.665 147.196 147.345 147.644C147.033 148.084 146.549 148.384 145.893 148.544L147.957 152H146.325ZM143.361 147.572H144.873C145.385 147.572 145.769 147.444 146.025 147.188C146.289 146.932 146.421 146.588 146.421 146.156C146.421 145.724 146.293 145.388 146.037 145.148C145.781 144.9 145.393 144.776 144.873 144.776H143.361V147.572ZM149.119 148.664C149.119 148 149.255 147.412 149.527 146.9C149.807 146.388 150.183 145.992 150.655 145.712C151.135 145.424 151.663 145.28 152.239 145.28C152.759 145.28 153.211 145.384 153.595 145.592C153.987 145.792 154.299 146.044 154.531 146.348V145.388H155.911V152H154.531V151.016C154.299 151.328 153.983 151.588 153.583 151.796C153.183 152.004 152.727 152.108 152.215 152.108C151.647 152.108 151.127 151.964 150.655 151.676C150.183 151.38 149.807 150.972 149.527 150.452C149.255 149.924 149.119 149.328 149.119 148.664ZM154.531 148.688C154.531 148.232 154.435 147.836 154.243 147.5C154.059 147.164 153.815 146.908 153.511 146.732C153.207 146.556 152.879 146.468 152.527 146.468C152.175 146.468 151.847 146.556 151.543 146.732C151.239 146.9 150.991 147.152 150.799 147.488C150.615 147.816 150.523 148.208 150.523 148.664C150.523 149.12 150.615 149.52 150.799 149.864C150.991 150.208 151.239 150.472 151.543 150.656C151.855 150.832 152.183 150.92 152.527 150.92C152.879 150.92 153.207 150.832 153.511 150.656C153.815 150.48 154.059 150.224 154.243 149.888C154.435 149.544 154.531 149.144 154.531 148.688ZM159.304 146.504V150.164C159.304 150.412 159.36 150.592 159.472 150.704C159.592 150.808 159.792 150.86 160.072 150.86H160.912V152H159.832C159.216 152 158.744 151.856 158.416 151.568C158.088 151.28 157.924 150.812 157.924 150.164V146.504H157.144V145.388H157.924V143.744H159.304V145.388H160.912V146.504H159.304ZM168.232 148.532C168.232 148.78 168.216 149.004 168.184 149.204H163.132C163.172 149.732 163.368 150.156 163.72 150.476C164.072 150.796 164.504 150.956 165.016 150.956C165.752 150.956 166.272 150.648 166.576 150.032H168.052C167.852 150.64 167.488 151.14 166.96 151.532C166.44 151.916 165.792 152.108 165.016 152.108C164.384 152.108 163.816 151.968 163.312 151.688C162.816 151.4 162.424 151 162.136 150.488C161.856 149.968 161.716 149.368 161.716 148.688C161.716 148.008 161.852 147.412 162.124 146.9C162.404 146.38 162.792 145.98 163.288 145.7C163.792 145.42 164.368 145.28 165.016 145.28C165.64 145.28 166.196 145.416 166.684 145.688C167.172 145.96 167.552 146.344 167.824 146.84C168.096 147.328 168.232 147.892 168.232 148.532ZM166.804 148.1C166.796 147.596 166.616 147.192 166.264 146.888C165.912 146.584 165.476 146.432 164.956 146.432C164.484 146.432 164.08 146.584 163.744 146.888C163.408 147.184 163.208 147.588 163.144 148.1H166.804Z" fill="#15192C"/>
<path d="M178.16 144.02C178.24 142.78 178.713 141.813 179.58 141.12C180.46 140.427 181.58 140.08 182.94 140.08C183.873 140.08 184.68 140.247 185.36 140.58C186.04 140.913 186.553 141.367 186.9 141.94C187.247 142.513 187.42 143.16 187.42 143.88C187.42 144.707 187.2 145.413 186.76 146C186.32 146.587 185.793 146.98 185.18 147.18V147.26C185.967 147.5 186.58 147.94 187.02 148.58C187.46 149.207 187.68 150.013 187.68 151C187.68 151.787 187.5 152.487 187.14 153.1C186.78 153.713 186.247 154.2 185.54 154.56C184.833 154.907 183.987 155.08 183 155.08C181.56 155.08 180.373 154.713 179.44 153.98C178.52 153.233 178.027 152.167 177.96 150.78H180.16C180.213 151.487 180.487 152.067 180.98 152.52C181.473 152.96 182.14 153.18 182.98 153.18C183.793 153.18 184.42 152.96 184.86 152.52C185.3 152.067 185.52 151.487 185.52 150.78C185.52 149.847 185.22 149.187 184.62 148.8C184.033 148.4 183.127 148.2 181.9 148.2H181.38V146.32H181.92C183 146.307 183.82 146.127 184.38 145.78C184.953 145.433 185.24 144.887 185.24 144.14C185.24 143.5 185.033 142.993 184.62 142.62C184.207 142.233 183.62 142.04 182.86 142.04C182.113 142.04 181.533 142.233 181.12 142.62C180.707 142.993 180.46 143.46 180.38 144.02H178.16ZM197.915 143.8C197.768 143.187 197.502 142.727 197.115 142.42C196.728 142.113 196.188 141.96 195.495 141.96C194.442 141.96 193.655 142.367 193.135 143.18C192.615 143.98 192.342 145.313 192.315 147.18C192.662 146.593 193.168 146.14 193.835 145.82C194.502 145.5 195.222 145.34 195.995 145.34C196.875 145.34 197.648 145.533 198.315 145.92C198.995 146.293 199.522 146.84 199.895 147.56C200.282 148.28 200.475 149.14 200.475 150.14C200.475 151.073 200.288 151.907 199.915 152.64C199.555 153.373 199.015 153.953 198.295 154.38C197.575 154.793 196.708 155 195.695 155C194.322 155 193.242 154.7 192.455 154.1C191.682 153.487 191.135 152.627 190.815 151.52C190.508 150.413 190.355 149.033 190.355 147.38C190.355 142.5 192.075 140.06 195.515 140.06C196.848 140.06 197.895 140.42 198.655 141.14C199.428 141.86 199.882 142.747 200.015 143.8H197.915ZM195.495 147.26C194.682 147.26 193.988 147.507 193.415 148C192.855 148.48 192.575 149.18 192.575 150.1C192.575 151.02 192.835 151.753 193.355 152.3C193.888 152.833 194.628 153.1 195.575 153.1C196.415 153.1 197.075 152.84 197.555 152.32C198.048 151.8 198.295 151.107 198.295 150.24C198.295 149.333 198.055 148.613 197.575 148.08C197.108 147.533 196.415 147.26 195.495 147.26ZM202.547 143.94C202.547 142.967 202.827 142.207 203.387 141.66C203.96 141.1 204.694 140.82 205.587 140.82C206.48 140.82 207.207 141.1 207.767 141.66C208.34 142.207 208.627 142.967 208.627 143.94C208.627 144.913 208.34 145.68 207.767 146.24C207.207 146.8 206.48 147.08 205.587 147.08C204.694 147.08 203.96 146.8 203.387 146.24C202.827 145.68 202.547 144.913 202.547 143.94ZM214.747 141.08L206.767 155H204.527L212.507 141.08H214.747ZM205.587 142.2C204.747 142.2 204.327 142.78 204.327 143.94C204.327 145.113 204.747 145.7 205.587 145.7C205.987 145.7 206.294 145.56 206.507 145.28C206.734 144.987 206.847 144.54 206.847 143.94C206.847 142.78 206.427 142.2 205.587 142.2ZM210.687 152.12C210.687 151.147 210.967 150.387 211.527 149.84C212.1 149.28 212.834 149 213.727 149C214.607 149 215.327 149.28 215.887 149.84C216.46 150.387 216.747 151.147 216.747 152.12C216.747 153.093 216.46 153.86 215.887 154.42C215.327 154.98 214.607 155.26 213.727 155.26C212.834 155.26 212.1 154.98 211.527 154.42C210.967 153.86 210.687 153.093 210.687 152.12ZM213.707 150.38C212.867 150.38 212.447 150.96 212.447 152.12C212.447 153.28 212.867 153.86 213.707 153.86C214.547 153.86 214.967 153.28 214.967 152.12C214.967 150.96 214.547 150.38 213.707 150.38Z" fill="#15192C"/>
<circle cx="54.7683" cy="148.152" r="3.76834" fill="#C4F000"/>
<path d="M292.536 152L290.616 148.664H289.572V152H288.204V143.66H291.084C291.724 143.66 292.264 143.772 292.704 143.996C293.152 144.22 293.484 144.52 293.7 144.896C293.924 145.272 294.036 145.692 294.036 146.156C294.036 146.7 293.876 147.196 293.556 147.644C293.244 148.084 292.76 148.384 292.104 148.544L294.168 152H292.536ZM289.572 147.572H291.084C291.596 147.572 291.98 147.444 292.236 147.188C292.5 146.932 292.632 146.588 292.632 146.156C292.632 145.724 292.504 145.388 292.248 145.148C291.992 144.9 291.604 144.776 291.084 144.776H289.572V147.572ZM301.846 148.532C301.846 148.78 301.83 149.004 301.798 149.204H296.746C296.786 149.732 296.982 150.156 297.334 150.476C297.686 150.796 298.118 150.956 298.63 150.956C299.366 150.956 299.886 150.648 300.19 150.032H301.666C301.466 150.64 301.102 151.14 300.574 151.532C300.054 151.916 299.406 152.108 298.63 152.108C297.998 152.108 297.43 151.968 296.926 151.688C296.43 151.4 296.038 151 295.75 150.488C295.47 149.968 295.33 149.368 295.33 148.688C295.33 148.008 295.466 147.412 295.738 146.9C296.018 146.38 296.406 145.98 296.902 145.7C297.406 145.42 297.982 145.28 298.63 145.28C299.254 145.28 299.81 145.416 300.298 145.688C300.786 145.96 301.166 146.344 301.438 146.84C301.71 147.328 301.846 147.892 301.846 148.532ZM300.418 148.1C300.41 147.596 300.23 147.192 299.878 146.888C299.526 146.584 299.09 146.432 298.57 146.432C298.098 146.432 297.694 146.584 297.358 146.888C297.022 147.184 296.822 147.588 296.758 148.1H300.418ZM305.592 152.108C305.072 152.108 304.604 152.016 304.188 151.832C303.78 151.64 303.456 151.384 303.216 151.064C302.976 150.736 302.848 150.372 302.832 149.972H304.248C304.272 150.252 304.404 150.488 304.644 150.68C304.892 150.864 305.2 150.956 305.568 150.956C305.952 150.956 306.248 150.884 306.456 150.74C306.672 150.588 306.78 150.396 306.78 150.164C306.78 149.916 306.66 149.732 306.42 149.612C306.188 149.492 305.816 149.36 305.304 149.216C304.808 149.08 304.404 148.948 304.092 148.82C303.78 148.692 303.508 148.496 303.276 148.232C303.052 147.968 302.94 147.62 302.94 147.188C302.94 146.836 303.044 146.516 303.252 146.228C303.46 145.932 303.756 145.7 304.14 145.532C304.532 145.364 304.98 145.28 305.484 145.28C306.236 145.28 306.84 145.472 307.296 145.856C307.76 146.232 308.008 146.748 308.04 147.404H306.672C306.648 147.108 306.528 146.872 306.312 146.696C306.096 146.52 305.804 146.432 305.436 146.432C305.076 146.432 304.8 146.5 304.608 146.636C304.416 146.772 304.32 146.952 304.32 147.176C304.32 147.352 304.384 147.5 304.512 147.62C304.64 147.74 304.796 147.836 304.98 147.908C305.164 147.972 305.436 148.056 305.796 148.16C306.276 148.288 306.668 148.42 306.972 148.556C307.284 148.684 307.552 148.876 307.776 149.132C308 149.388 308.116 149.728 308.124 150.152C308.124 150.528 308.02 150.864 307.812 151.16C307.604 151.456 307.308 151.688 306.924 151.856C306.548 152.024 306.104 152.108 305.592 152.108ZM310.97 146.36C311.202 146.056 311.518 145.8 311.918 145.592C312.318 145.384 312.77 145.28 313.274 145.28C313.85 145.28 314.374 145.424 314.846 145.712C315.326 145.992 315.702 146.388 315.974 146.9C316.246 147.412 316.382 148 316.382 148.664C316.382 149.328 316.246 149.924 315.974 150.452C315.702 150.972 315.326 151.38 314.846 151.676C314.374 151.964 313.85 152.108 313.274 152.108C312.77 152.108 312.322 152.008 311.93 151.808C311.538 151.6 311.218 151.344 310.97 151.04V155.144H309.602V145.388H310.97V146.36ZM314.99 148.664C314.99 148.208 314.894 147.816 314.702 147.488C314.518 147.152 314.27 146.9 313.958 146.732C313.654 146.556 313.326 146.468 312.974 146.468C312.63 146.468 312.302 146.556 311.99 146.732C311.686 146.908 311.438 147.164 311.246 147.5C311.062 147.836 310.97 148.232 310.97 148.688C310.97 149.144 311.062 149.544 311.246 149.888C311.438 150.224 311.686 150.48 311.99 150.656C312.302 150.832 312.63 150.92 312.974 150.92C313.326 150.92 313.654 150.832 313.958 150.656C314.27 150.472 314.518 150.208 314.702 149.864C314.894 149.52 314.99 149.12 314.99 148.664ZM320.603 152.108C319.979 152.108 319.415 151.968 318.911 151.688C318.407 151.4 318.011 151 317.723 150.488C317.435 149.968 317.291 149.368 317.291 148.688C317.291 148.016 317.439 147.42 317.735 146.9C318.031 146.38 318.435 145.98 318.947 145.7C319.459 145.42 320.031 145.28 320.663 145.28C321.295 145.28 321.867 145.42 322.379 145.7C322.891 145.98 323.295 146.38 323.591 146.9C323.887 147.42 324.035 148.016 324.035 148.688C324.035 149.36 323.883 149.956 323.579 150.476C323.275 150.996 322.859 151.4 322.331 151.688C321.811 151.968 321.235 152.108 320.603 152.108ZM320.603 150.92C320.955 150.92 321.283 150.836 321.587 150.668C321.899 150.5 322.151 150.248 322.343 149.912C322.535 149.576 322.631 149.168 322.631 148.688C322.631 148.208 322.539 147.804 322.355 147.476C322.171 147.14 321.927 146.888 321.623 146.72C321.319 146.552 320.991 146.468 320.639 146.468C320.287 146.468 319.959 146.552 319.655 146.72C319.359 146.888 319.123 147.14 318.947 147.476C318.771 147.804 318.683 148.208 318.683 148.688C318.683 149.4 318.863 149.952 319.223 150.344C319.591 150.728 320.051 150.92 320.603 150.92ZM328.723 145.28C329.243 145.28 329.707 145.388 330.115 145.604C330.531 145.82 330.855 146.14 331.087 146.564C331.319 146.988 331.435 147.5 331.435 148.1V152H330.079V148.304C330.079 147.712 329.931 147.26 329.635 146.948C329.339 146.628 328.935 146.468 328.423 146.468C327.911 146.468 327.503 146.628 327.199 146.948C326.903 147.26 326.755 147.712 326.755 148.304V152H325.387V145.388H326.755V146.144C326.979 145.872 327.263 145.66 327.607 145.508C327.959 145.356 328.331 145.28 328.723 145.28ZM335.58 152.108C335.06 152.108 334.592 152.016 334.176 151.832C333.768 151.64 333.444 151.384 333.204 151.064C332.964 150.736 332.836 150.372 332.82 149.972H334.236C334.26 150.252 334.392 150.488 334.632 150.68C334.88 150.864 335.188 150.956 335.556 150.956C335.94 150.956 336.236 150.884 336.444 150.74C336.66 150.588 336.768 150.396 336.768 150.164C336.768 149.916 336.648 149.732 336.408 149.612C336.176 149.492 335.804 149.36 335.292 149.216C334.796 149.08 334.392 148.948 334.08 148.82C333.768 148.692 333.496 148.496 333.264 148.232C333.04 147.968 332.928 147.62 332.928 147.188C332.928 146.836 333.032 146.516 333.24 146.228C333.448 145.932 333.744 145.7 334.128 145.532C334.52 145.364 334.968 145.28 335.472 145.28C336.224 145.28 336.828 145.472 337.284 145.856C337.748 146.232 337.996 146.748 338.028 147.404H336.66C336.636 147.108 336.516 146.872 336.3 146.696C336.084 146.52 335.792 146.432 335.424 146.432C335.064 146.432 334.788 146.5 334.596 146.636C334.404 146.772 334.308 146.952 334.308 147.176C334.308 147.352 334.372 147.5 334.5 147.62C334.628 147.74 334.784 147.836 334.968 147.908C335.152 147.972 335.424 148.056 335.784 148.16C336.264 148.288 336.656 148.42 336.96 148.556C337.272 148.684 337.54 148.876 337.764 149.132C337.988 149.388 338.104 149.728 338.112 150.152C338.112 150.528 338.008 150.864 337.8 151.16C337.592 151.456 337.296 151.688 336.912 151.856C336.536 152.024 336.092 152.108 335.58 152.108ZM345.65 148.532C345.65 148.78 345.634 149.004 345.602 149.204H340.55C340.59 149.732 340.786 150.156 341.138 150.476C341.49 150.796 341.922 150.956 342.434 150.956C343.17 150.956 343.69 150.648 343.994 150.032H345.47C345.27 150.64 344.906 151.14 344.378 151.532C343.858 151.916 343.21 152.108 342.434 152.108C341.802 152.108 341.234 151.968 340.73 151.688C340.234 151.4 339.842 151 339.554 150.488C339.274 149.968 339.134 149.368 339.134 148.688C339.134 148.008 339.27 147.412 339.542 146.9C339.822 146.38 340.21 145.98 340.706 145.7C341.21 145.42 341.786 145.28 342.434 145.28C343.058 145.28 343.614 145.416 344.102 145.688C344.59 145.96 344.97 146.344 345.242 146.84C345.514 147.328 345.65 147.892 345.65 148.532ZM344.222 148.1C344.214 147.596 344.034 147.192 343.682 146.888C343.33 146.584 342.894 146.432 342.374 146.432C341.902 146.432 341.498 146.584 341.162 146.888C340.826 147.184 340.626 147.588 340.562 148.1H344.222ZM354.446 152L352.526 148.664H351.482V152H350.114V143.66H352.994C353.634 143.66 354.174 143.772 354.614 143.996C355.062 144.22 355.394 144.52 355.61 144.896C355.834 145.272 355.946 145.692 355.946 146.156C355.946 146.7 355.786 147.196 355.466 147.644C355.154 148.084 354.67 148.384 354.014 148.544L356.078 152H354.446ZM351.482 147.572H352.994C353.506 147.572 353.89 147.444 354.146 147.188C354.41 146.932 354.542 146.588 354.542 146.156C354.542 145.724 354.414 145.388 354.158 145.148C353.902 144.9 353.514 144.776 352.994 144.776H351.482V147.572ZM357.24 148.664C357.24 148 357.376 147.412 357.648 146.9C357.928 146.388 358.304 145.992 358.776 145.712C359.256 145.424 359.784 145.28 360.36 145.28C360.88 145.28 361.332 145.384 361.716 145.592C362.108 145.792 362.42 146.044 362.652 146.348V145.388H364.032V152H362.652V151.016C362.42 151.328 362.104 151.588 361.704 151.796C361.304 152.004 360.848 152.108 360.336 152.108C359.768 152.108 359.248 151.964 358.776 151.676C358.304 151.38 357.928 150.972 357.648 150.452C357.376 149.924 357.24 149.328 357.24 148.664ZM362.652 148.688C362.652 148.232 362.556 147.836 362.364 147.5C362.18 147.164 361.936 146.908 361.632 146.732C361.328 146.556 361 146.468 360.648 146.468C360.296 146.468 359.968 146.556 359.664 146.732C359.36 146.9 359.112 147.152 358.92 147.488C358.736 147.816 358.644 148.208 358.644 148.664C358.644 149.12 358.736 149.52 358.92 149.864C359.112 150.208 359.36 150.472 359.664 150.656C359.976 150.832 360.304 150.92 360.648 150.92C361 150.92 361.328 150.832 361.632 150.656C361.936 150.48 362.18 150.224 362.364 149.888C362.556 149.544 362.652 149.144 362.652 148.688ZM367.425 146.504V150.164C367.425 150.412 367.481 150.592 367.593 150.704C367.713 150.808 367.913 150.86 368.193 150.86H369.033V152H367.953C367.337 152 366.865 151.856 366.537 151.568C366.209 151.28 366.045 150.812 366.045 150.164V146.504H365.265V145.388H366.045V143.744H367.425V145.388H369.033V146.504H367.425ZM376.354 148.532C376.354 148.78 376.338 149.004 376.306 149.204H371.254C371.294 149.732 371.49 150.156 371.842 150.476C372.194 150.796 372.626 150.956 373.138 150.956C373.874 150.956 374.394 150.648 374.698 150.032H376.174C375.974 150.64 375.61 151.14 375.082 151.532C374.562 151.916 373.914 152.108 373.138 152.108C372.506 152.108 371.938 151.968 371.434 151.688C370.938 151.4 370.546 151 370.258 150.488C369.978 149.968 369.838 149.368 369.838 148.688C369.838 148.008 369.974 147.412 370.246 146.9C370.526 146.38 370.914 145.98 371.41 145.7C371.914 145.42 372.49 145.28 373.138 145.28C373.762 145.28 374.318 145.416 374.806 145.688C375.294 145.96 375.674 146.344 375.946 146.84C376.218 147.328 376.354 147.892 376.354 148.532ZM374.926 148.1C374.918 147.596 374.738 147.192 374.386 146.888C374.034 146.584 373.598 146.432 373.078 146.432C372.606 146.432 372.202 146.584 371.866 146.888C371.53 147.184 371.33 147.588 371.266 148.1H374.926Z" fill="#15192C"/>
<path d="M386.16 144.02C386.24 142.78 386.713 141.813 387.58 141.12C388.46 140.427 389.58 140.08 390.94 140.08C391.873 140.08 392.68 140.247 393.36 140.58C394.04 140.913 394.553 141.367 394.9 141.94C395.247 142.513 395.42 143.16 395.42 143.88C395.42 144.707 395.2 145.413 394.76 146C394.32 146.587 393.793 146.98 393.18 147.18V147.26C393.967 147.5 394.58 147.94 395.02 148.58C395.46 149.207 395.68 150.013 395.68 151C395.68 151.787 395.5 152.487 395.14 153.1C394.78 153.713 394.247 154.2 393.54 154.56C392.833 154.907 391.987 155.08 391 155.08C389.56 155.08 388.373 154.713 387.44 153.98C386.52 153.233 386.027 152.167 385.96 150.78H388.16C388.213 151.487 388.487 152.067 388.98 152.52C389.473 152.96 390.14 153.18 390.98 153.18C391.793 153.18 392.42 152.96 392.86 152.52C393.3 152.067 393.52 151.487 393.52 150.78C393.52 149.847 393.22 149.187 392.62 148.8C392.033 148.4 391.127 148.2 389.9 148.2H389.38V146.32H389.92C391 146.307 391.82 146.127 392.38 145.78C392.953 145.433 393.24 144.887 393.24 144.14C393.24 143.5 393.033 142.993 392.62 142.62C392.207 142.233 391.62 142.04 390.86 142.04C390.113 142.04 389.533 142.233 389.12 142.62C388.707 142.993 388.46 143.46 388.38 144.02H386.16ZM398.035 144.02C398.115 142.78 398.588 141.813 399.455 141.12C400.335 140.427 401.455 140.08 402.815 140.08C403.748 140.08 404.555 140.247 405.235 140.58C405.915 140.913 406.428 141.367 406.775 141.94C407.122 142.513 407.295 143.16 407.295 143.88C407.295 144.707 407.075 145.413 406.635 146C406.195 146.587 405.668 146.98 405.055 147.18V147.26C405.842 147.5 406.455 147.94 406.895 148.58C407.335 149.207 407.555 150.013 407.555 151C407.555 151.787 407.375 152.487 407.015 153.1C406.655 153.713 406.122 154.2 405.415 154.56C404.708 154.907 403.862 155.08 402.875 155.08C401.435 155.08 400.248 154.713 399.315 153.98C398.395 153.233 397.902 152.167 397.835 150.78H400.035C400.088 151.487 400.362 152.067 400.855 152.52C401.348 152.96 402.015 153.18 402.855 153.18C403.668 153.18 404.295 152.96 404.735 152.52C405.175 152.067 405.395 151.487 405.395 150.78C405.395 149.847 405.095 149.187 404.495 148.8C403.908 148.4 403.002 148.2 401.775 148.2H401.255V146.32H401.795C402.875 146.307 403.695 146.127 404.255 145.78C404.828 145.433 405.115 144.887 405.115 144.14C405.115 143.5 404.908 142.993 404.495 142.62C404.082 142.233 403.495 142.04 402.735 142.04C401.988 142.04 401.408 142.233 400.995 142.62C400.582 142.993 400.335 143.46 400.255 144.02H398.035ZM409.59 143.94C409.59 142.967 409.87 142.207 410.43 141.66C411.003 141.1 411.737 140.82 412.63 140.82C413.523 140.82 414.25 141.1 414.81 141.66C415.383 142.207 415.67 142.967 415.67 143.94C415.67 144.913 415.383 145.68 414.81 146.24C414.25 146.8 413.523 147.08 412.63 147.08C411.737 147.08 411.003 146.8 410.43 146.24C409.87 145.68 409.59 144.913 409.59 143.94ZM421.79 141.08L413.81 155H411.57L419.55 141.08H421.79ZM412.63 142.2C411.79 142.2 411.37 142.78 411.37 143.94C411.37 145.113 411.79 145.7 412.63 145.7C413.03 145.7 413.337 145.56 413.55 145.28C413.777 144.987 413.89 144.54 413.89 143.94C413.89 142.78 413.47 142.2 412.63 142.2ZM417.73 152.12C417.73 151.147 418.01 150.387 418.57 149.84C419.143 149.28 419.877 149 420.77 149C421.65 149 422.37 149.28 422.93 149.84C423.503 150.387 423.79 151.147 423.79 152.12C423.79 153.093 423.503 153.86 422.93 154.42C422.37 154.98 421.65 155.26 420.77 155.26C419.877 155.26 419.143 154.98 418.57 154.42C418.01 153.86 417.73 153.093 417.73 152.12ZM420.75 150.38C419.91 150.38 419.49 150.96 419.49 152.12C419.49 153.28 419.91 153.86 420.75 153.86C421.59 153.86 422.01 153.28 422.01 152.12C422.01 150.96 421.59 150.38 420.75 150.38Z" fill="#15192C"/>
<circle cx="272.768" cy="148.152" r="3.76834" fill="#191919"/>
<path d="M521.147 54.4874C514.422 60.5255 508.97 67.8456 505.112 76.0186C501.254 84.1915 499.066 93.0526 498.677 102.082C498.289 111.112 499.707 120.128 502.85 128.602C505.992 137.076 510.795 144.837 516.976 151.431L525.294 143.632C520.151 138.146 516.155 131.688 513.541 124.638C510.926 117.587 509.746 110.085 510.069 102.572C510.392 95.0593 512.213 87.6865 515.423 80.8864C518.633 74.0862 523.169 67.9956 528.765 62.9716L521.147 54.4874Z" fill="#D0D2DA"/>
<path d="M638.5 105C638.5 91.0902 634.471 77.4783 626.9 65.8096C619.328 54.1409 608.539 44.9152 595.836 39.2476C583.134 33.5801 569.061 31.7134 555.32 33.8733C541.579 36.0331 528.758 42.127 518.406 51.4183L532.416 67.0264C539.752 60.4416 548.838 56.1228 558.577 54.5921C568.315 53.0614 578.288 54.3844 587.291 58.401C596.293 62.4176 603.94 68.9559 609.306 77.2256C614.671 85.4952 617.527 95.1421 617.527 105H638.5Z" fill="#C4F000"/>
<path d="M516.092 152.207C525.559 162.316 537.846 169.345 551.359 172.381C564.871 175.418 578.984 174.321 591.865 169.234C604.747 164.148 615.801 155.306 623.593 143.856C631.385 132.407 635.555 118.88 635.561 105.03L622.959 105.025C622.954 116.347 619.545 127.406 613.175 136.766C606.805 146.126 597.768 153.355 587.237 157.513C576.706 161.672 565.168 162.568 554.121 160.086C543.075 157.604 533.03 151.857 525.29 143.593L516.092 152.207Z" fill="#191919"/>
<path d="M557.467 88.5661L549.961 105.873H546.856L554.443 88.8901H544.453V86.2711H557.467V88.5661Z" fill="#15192C"/>
<path d="M570.686 90.7531C570.488 89.9251 570.128 89.3041 569.606 88.8901C569.084 88.4761 568.355 88.2691 567.419 88.2691C565.997 88.2691 564.935 88.8181 564.233 89.9161C563.531 90.9961 563.162 92.7961 563.126 95.3161C563.594 94.5241 564.278 93.9121 565.178 93.4801C566.078 93.0481 567.05 92.8321 568.094 92.8321C569.282 92.8321 570.326 93.0931 571.226 93.6151C572.144 94.1191 572.855 94.8571 573.359 95.8291C573.881 96.8011 574.142 97.9621 574.142 99.3121C574.142 100.572 573.89 101.697 573.386 102.687C572.9 103.677 572.171 104.46 571.199 105.036C570.227 105.594 569.057 105.873 567.689 105.873C565.835 105.873 564.377 105.468 563.315 104.658C562.271 103.83 561.533 102.669 561.101 101.175C560.687 99.6811 560.48 97.8181 560.48 95.5861C560.48 88.9981 562.802 85.7041 567.446 85.7041C569.246 85.7041 570.659 86.1901 571.685 87.1621C572.729 88.1341 573.341 89.3311 573.521 90.7531H570.686ZM567.419 95.4241C566.321 95.4241 565.385 95.7571 564.611 96.4231C563.855 97.0711 563.477 98.0161 563.477 99.2581C563.477 100.5 563.828 101.49 564.53 102.228C565.25 102.948 566.249 103.308 567.527 103.308C568.661 103.308 569.552 102.957 570.2 102.255C570.866 101.553 571.199 100.617 571.199 99.4471C571.199 98.2231 570.875 97.2511 570.227 96.5311C569.597 95.7931 568.661 95.4241 567.419 95.4241Z" fill="#15192C"/>
<path d="M576.813 92.6011C576.813 91.4331 577.149 90.5211 577.821 89.8651C578.509 89.1931 579.389 88.8571 580.461 88.8571C581.533 88.8571 582.405 89.1931 583.077 89.8651C583.765 90.5211 584.109 91.4331 584.109 92.6011C584.109 93.7691 583.765 94.6891 583.077 95.3611C582.405 96.0331 581.533 96.3691 580.461 96.3691C579.389 96.3691 578.509 96.0331 577.821 95.3611C577.149 94.6891 576.813 93.7691 576.813 92.6011ZM591.453 89.1691L581.877 105.873H579.189L588.765 89.1691H591.453ZM580.461 90.5131C579.453 90.5131 578.949 91.2091 578.949 92.6011C578.949 94.0091 579.453 94.7131 580.461 94.7131C580.941 94.7131 581.309 94.5451 581.565 94.2091C581.837 93.8571 581.973 93.3211 581.973 92.6011C581.973 91.2091 581.469 90.5131 580.461 90.5131ZM586.581 102.417C586.581 101.249 586.917 100.337 587.589 99.6811C588.277 99.0091 589.157 98.6731 590.229 98.6731C591.285 98.6731 592.149 99.0091 592.821 99.6811C593.509 100.337 593.853 101.249 593.853 102.417C593.853 103.585 593.509 104.505 592.821 105.177C592.149 105.849 591.285 106.185 590.229 106.185C589.157 106.185 588.277 105.849 587.589 105.177C586.917 104.505 586.581 103.585 586.581 102.417ZM590.205 100.329C589.197 100.329 588.693 101.025 588.693 102.417C588.693 103.809 589.197 104.505 590.205 104.505C591.213 104.505 591.717 103.809 591.717 102.417C591.717 101.025 591.213 100.329 590.205 100.329Z" fill="#15192C"/>
<path d="M557.684 119.66V128H556.316V122.288L553.772 128H552.824L550.268 122.288V128H548.9V119.66H550.376L553.304 126.2L556.22 119.66H557.684ZM559.026 124.664C559.026 124 559.162 123.412 559.434 122.9C559.714 122.388 560.09 121.992 560.562 121.712C561.042 121.424 561.57 121.28 562.146 121.28C562.666 121.28 563.118 121.384 563.502 121.592C563.894 121.792 564.206 122.044 564.438 122.348V121.388H565.818V128H564.438V127.016C564.206 127.328 563.89 127.588 563.49 127.796C563.09 128.004 562.634 128.108 562.122 128.108C561.554 128.108 561.034 127.964 560.562 127.676C560.09 127.38 559.714 126.972 559.434 126.452C559.162 125.924 559.026 125.328 559.026 124.664ZM564.438 124.688C564.438 124.232 564.342 123.836 564.15 123.5C563.966 123.164 563.722 122.908 563.418 122.732C563.114 122.556 562.786 122.468 562.434 122.468C562.082 122.468 561.754 122.556 561.45 122.732C561.146 122.9 560.898 123.152 560.706 123.488C560.522 123.816 560.43 124.208 560.43 124.664C560.43 125.12 560.522 125.52 560.706 125.864C560.898 126.208 561.146 126.472 561.45 126.656C561.762 126.832 562.09 126.92 562.434 126.92C562.786 126.92 563.114 126.832 563.418 126.656C563.722 126.48 563.966 126.224 564.15 125.888C564.342 125.544 564.438 125.144 564.438 124.688ZM569.211 122.504V126.164C569.211 126.412 569.267 126.592 569.379 126.704C569.499 126.808 569.699 126.86 569.979 126.86H570.819V128H569.739C569.123 128 568.651 127.856 568.323 127.568C567.995 127.28 567.831 126.812 567.831 126.164V122.504H567.051V121.388H567.831V119.744H569.211V121.388H570.819V122.504H569.211ZM571.624 124.688C571.624 124.008 571.76 123.412 572.032 122.9C572.312 122.38 572.696 121.98 573.184 121.7C573.672 121.42 574.232 121.28 574.864 121.28C575.664 121.28 576.324 121.472 576.844 121.856C577.372 122.232 577.728 122.772 577.912 123.476H576.436C576.316 123.148 576.124 122.892 575.86 122.708C575.596 122.524 575.264 122.432 574.864 122.432C574.304 122.432 573.856 122.632 573.52 123.032C573.192 123.424 573.028 123.976 573.028 124.688C573.028 125.4 573.192 125.956 573.52 126.356C573.856 126.756 574.304 126.956 574.864 126.956C575.656 126.956 576.18 126.608 576.436 125.912H577.912C577.72 126.584 577.36 127.12 576.832 127.52C576.304 127.912 575.648 128.108 574.864 128.108C574.232 128.108 573.672 127.968 573.184 127.688C572.696 127.4 572.312 127 572.032 126.488C571.76 125.968 571.624 125.368 571.624 124.688ZM582.695 121.28C583.199 121.28 583.647 121.388 584.039 121.604C584.439 121.82 584.751 122.14 584.975 122.564C585.207 122.988 585.323 123.5 585.323 124.1V128H583.967V124.304C583.967 123.712 583.819 123.26 583.523 122.948C583.227 122.628 582.823 122.468 582.311 122.468C581.799 122.468 581.391 122.628 581.087 122.948C580.791 123.26 580.643 123.712 580.643 124.304V128H579.275V119.12H580.643V122.156C580.875 121.876 581.167 121.66 581.519 121.508C581.879 121.356 582.271 121.28 582.695 121.28Z" fill="black"/>
<defs>
<filter id="filter0_d_863_4393" x="0" y="0" width="689" height="225" filterUnits="userSpaceOnUse" color-interpolation-filters="sRGB">
<feFlood flood-opacity="0" result="BackgroundImageFix"/>
<feColorMatrix in="SourceAlpha" type="matrix" values="0 0 0 0 0 0 0 0 0 0 0 0 0 0 0 0 0 0 127 0" result="hardAlpha"/>
<feOffset dy="4"/>
<feGaussianBlur stdDeviation="5"/>
<feComposite in2="hardAlpha" operator="out"/>
<feColorMatrix type="matrix" values="0 0 0 0 0.641667 0 0 0 0 0.641667 0 0 0 0 0.641667 0 0 0 0.25 0"/>
<feBlend mode="normal" in2="BackgroundImageFix" result="effect1_dropShadow_863_4393"/>
<feBlend mode="normal" in="SourceGraphic" in2="effect1_dropShadow_863_4393" result="shape"/>
</filter>
</defs>
</svg>
