<svg width="40" height="32" viewBox="0 0 40 32" fill="none" xmlns="http://www.w3.org/2000/svg">
<path fill-rule="evenodd" clip-rule="evenodd" d="M14.166 0.882247C13.8374 0.334601 13.2456 -0.000488281 12.6069 -0.000488281H1.81818C0.814028 -0.000488281 0 0.813539 0 1.81769V29.9995C0 31.0037 0.814028 31.8177 1.81818 31.8177H38.1818C39.186 31.8177 40 31.0037 40 29.9995V6.36315C40 5.35899 39.186 4.54497 38.1818 4.54497H16.8784C16.559 4.54497 16.2631 4.37742 16.0988 4.1036L14.166 0.882247ZM2.72727 12.2722V2.72678H12.0922L13.7602 5.50677C14.4174 6.60206 15.601 7.27224 16.8784 7.27224H37.2727V12.2722H2.72727ZM2.72727 14.9995V29.0904H37.2727V14.9995H2.72727Z" fill="#191919"/>
</svg>
