<svg width="40" height="40" viewBox="0 0 40 40" fill="none" xmlns="http://www.w3.org/2000/svg">
<g clip-path="url(#clip0_821_826)">
<path d="M20 31.8182C23.5145 31.8182 26.3636 28.9691 26.3636 25.4546H13.6364C13.6364 28.9691 16.4855 31.8182 20 31.8182Z" fill="#C4F000"/>
<path fill-rule="evenodd" clip-rule="evenodd" d="M3.28441 12.9045C5.21923 5.48005 11.9696 0 20 0H35.4545C36.4587 0 37.2727 0.814028 37.2727 1.81818V13.1055C38.8781 13.8069 40 15.4088 40 17.2727C40 19.1367 38.8781 20.7386 37.2727 21.44V22.7273C37.2727 32.2667 29.5395 40 20 40C10.4605 40 2.72728 32.2667 2.72728 22.7273V21.44C1.12191 20.7386 0 19.1367 0 17.2727C0 15.1999 1.3875 13.4511 3.28441 12.9045ZM34.5455 2.72727H20C15.0006 2.72727 10.5903 5.24951 7.97215 9.09091H34.5455V2.72727ZM5.45455 17.2727C5.45455 15.3438 5.83002 13.5026 6.51186 11.8182H34.5455V22.7273C34.5455 30.7605 28.0332 37.2727 20 37.2727C11.9668 37.2727 5.45455 30.7605 5.45455 22.7273V17.2727Z" fill="#191919"/>
</g>
<defs>
<clipPath id="clip0_821_826">
<rect width="40" height="40" fill="white"/>
</clipPath>
</defs>
</svg>
