<svg width="40" height="40" viewBox="0 0 40 40" fill="none" xmlns="http://www.w3.org/2000/svg">
<path d="M39.6006 2.32787C40.1331 1.79534 40.1331 0.931932 39.6006 0.399399C39.0681 -0.133133 38.2047 -0.133133 37.6721 0.399399L18.0549 20.0166C17.5224 20.5491 17.5224 21.4125 18.0549 21.9451C18.5875 22.4776 19.4509 22.4776 19.9834 21.9451L39.6006 2.32787Z" fill="#C4F000"/>
<path d="M30.401 5.74206C27.2274 3.36784 23.2874 1.96178 19.0191 1.96178C8.51514 1.96178 0 10.4769 0 20.9809C0 31.4849 8.51514 40 19.0191 40C29.5231 40 38.0382 31.4849 38.0382 20.9809C38.0382 16.7126 36.6321 12.7726 34.2579 9.59901L32.306 11.5509C34.1983 14.2123 35.3109 17.4667 35.3109 20.9809C35.3109 29.9786 28.0168 37.2727 19.0191 37.2727C10.0214 37.2727 2.72727 29.9786 2.72727 20.9809C2.72727 11.9832 10.0214 4.68905 19.0191 4.68905C22.5333 4.68905 25.7877 5.80172 28.4491 7.69399L30.401 5.74206Z" fill="#191919"/>
<path d="M24.0355 12.1075C22.5545 11.2685 20.8427 10.7894 19.019 10.7894C13.3905 10.7894 8.82766 15.3523 8.82766 20.9808C8.82766 26.6094 13.3905 31.1722 19.019 31.1722C24.6476 31.1722 29.2104 26.6094 29.2104 20.9808C29.2104 19.1572 28.7314 17.4454 27.8924 15.9645L25.8619 17.9949C26.2615 18.9093 26.4831 19.9192 26.4831 20.9808C26.4831 25.1031 23.1413 28.4449 19.019 28.4449C14.8967 28.4449 11.5549 25.1031 11.5549 20.9808C11.5549 16.8585 14.8967 13.5167 19.019 13.5167C20.0807 13.5167 21.0906 13.7384 22.005 14.138L24.0355 12.1075Z" fill="#191919"/>
</svg>
