<svg width="76" height="17" viewBox="0 0 76 17" fill="none" xmlns="http://www.w3.org/2000/svg">
<path d="M0.305176 15.8524L0.559527 13.8248V0.949219H5.44306V12.3547H14.4471L15.9732 15.5483C15.9732 15.599 15.7188 15.7004 15.3119 15.7511C14.854 15.8018 14.0401 15.8524 12.921 15.8524H0.305176Z" fill="#F4EFE6"/>
<path d="M22.7898 16.1059C21.1111 16.1059 19.7885 15.7004 18.9237 14.8893C18.0589 14.0783 17.6011 12.811 17.6011 11.0368V0.949219H22.5863V10.5806C22.5863 11.3916 22.7898 11.8985 23.1459 12.152C23.5529 12.4054 24.0107 12.5575 24.6212 12.5575H27.9277C28.4873 12.5575 28.9451 12.4054 29.3521 12.152C29.759 11.8985 29.9625 11.3409 29.9625 10.5806V0.949219H34.8461V11.0368C34.8461 12.811 34.4391 14.0783 33.5743 14.8893C32.7095 15.7004 31.4378 16.1059 29.7082 16.1059H22.7898Z" fill="#F4EFE6"/>
<path d="M43.3924 15.8524C41.561 15.8524 40.2384 15.4468 39.4245 14.6358C38.6106 13.8247 38.2036 12.5574 38.2036 10.7832V6.17033C38.2036 4.34544 38.6614 3.02747 39.5771 2.16572C40.4928 1.35466 41.7645 0.898438 43.3924 0.898438H50.8194C51.9894 0.898438 52.9051 0.949129 53.5155 1.1012C54.126 1.25328 54.4312 1.35466 54.4312 1.50673L53.6681 4.64959C53.2612 4.5989 52.3964 4.54821 51.1755 4.49752C49.9546 4.44683 48.3776 4.39613 46.5463 4.39613H45.2237C44.4098 4.39613 43.9011 4.54821 43.5958 4.85235C43.2906 5.1565 43.1889 5.61272 43.1889 6.22102V10.5298C43.1889 11.0874 43.2906 11.5436 43.545 11.8477C43.7993 12.1519 44.3589 12.304 45.2237 12.304H46.292C48.7337 12.304 50.5651 12.2533 51.8368 12.2026C53.1086 12.1519 53.8716 12.1012 54.126 11.9998L55.6521 14.7371C55.6521 14.8385 55.4995 14.9399 55.1434 15.1427C54.7873 15.2948 54.2277 15.4468 53.3629 15.5989C52.549 15.751 51.379 15.8017 49.9546 15.8017H43.3924V15.8524Z" fill="#F4EFE6"/>
<path d="M63.5877 15.8524V9.66811L56.1606 0.949219H62.2651L64.8086 4.44691L65.9786 6.2718H66.2329L67.4029 4.44691L69.8956 0.949219H76L74.9826 2.46996L68.5221 9.7695V15.8524H63.5877Z" fill="#F4EFE6"/>
</svg>
