<svg width="38" height="38" viewBox="0 0 38 38" fill="none" xmlns="http://www.w3.org/2000/svg">
<path fill-rule="evenodd" clip-rule="evenodd" d="M19.0001 33.9998C20.9699 33.9998 22.9204 33.6119 24.7403 32.858C26.5602 32.1042 28.2138 30.9993 29.6067 29.6064C30.9996 28.2136 32.1045 26.56 32.8583 24.7401C33.6121 22.9202 34.0001 20.9697 34.0001 18.9998C34.0001 17.03 33.6121 15.0795 32.8583 13.2596C32.1045 11.4397 30.9996 9.78611 29.6067 8.39323C28.2138 7.00036 26.5602 5.89546 24.7403 5.14164C22.9204 4.38782 20.9699 3.99984 19.0001 3.99984C15.0218 3.99984 11.2065 5.58019 8.39348 8.39323C5.58043 11.2063 4.00008 15.0216 4.00008 18.9998C4.00008 22.9781 5.58043 26.7934 8.39348 29.6064C11.2065 32.4195 15.0218 33.9998 19.0001 33.9998ZM19.0001 37.3332C29.1251 37.3332 37.3334 29.1248 37.3334 18.9998C37.3334 8.87484 29.1251 0.666504 19.0001 0.666504C8.87508 0.666504 0.666748 8.87484 0.666748 18.9998C0.666748 29.1248 8.87508 37.3332 19.0001 37.3332Z" fill="white"/>
<path d="M25.6667 18.9999L15.6667 26.2165V11.7832L25.6667 18.9999Z" fill="white"/>
</svg>
