<svg width="35" height="35" viewBox="0 0 35 35" fill="none" xmlns="http://www.w3.org/2000/svg">
<path d="M23.1969 5.31166C23.1969 6.86447 21.9209 8.1243 20.3483 8.1243C18.7756 8.1243 17.4997 6.86447 17.4997 5.31166C17.4997 3.75885 18.7756 2.49902 20.3483 2.49902C21.9209 2.49902 23.1969 3.75885 23.1969 5.31166ZM15.5116 14.1773C15.4523 14.2008 15.3989 14.2242 15.3395 14.2476L14.8648 14.4527C13.8915 14.8805 13.1438 15.695 12.8055 16.6911L12.6512 17.1482C12.3189 18.1326 11.2447 18.66 10.2477 18.3318C9.2507 18.0037 8.7166 16.9431 9.04893 15.9587L9.20323 15.5016C9.87977 13.5035 11.3753 11.8745 13.3218 11.019L13.7966 10.8139C15.0309 10.2748 16.3662 9.99353 17.7193 9.99353C20.3661 9.99353 22.7518 11.5639 23.7666 13.9722L24.6805 16.1345L25.9505 16.7614C26.8882 17.2244 27.268 18.3494 26.7991 19.2752C26.3303 20.2011 25.1909 20.5761 24.2532 20.1132L22.6628 19.3338C22.0515 19.0291 21.5708 18.5252 21.3097 17.8982L20.74 16.5505L19.5946 20.3886L22.5322 23.5528C22.8527 23.8985 23.0782 24.3145 23.1969 24.7716L24.5618 30.1683C24.817 31.1703 24.1998 32.1899 23.1791 32.4419C22.1583 32.6939 21.1317 32.0845 20.8765 31.0766L19.5709 25.9142L15.3751 21.3964C14.4968 20.453 14.1704 19.1346 14.5028 17.8982L15.5057 14.1773H15.5116ZM12.0815 25.8205L13.5651 22.164C13.6897 22.3398 13.8322 22.5039 13.9805 22.668L16.3959 25.2697L15.5354 27.3909C15.393 27.7424 15.1793 28.0647 14.9063 28.3343L11.2447 31.9497C10.5029 32.6821 9.29818 32.6821 8.55636 31.9497C7.81455 31.2172 7.81455 30.0277 8.55636 29.2953L12.0815 25.8205Z" fill="black"/>
</svg>
