<svg width="34" height="34" viewBox="0 0 34 34" fill="none" xmlns="http://www.w3.org/2000/svg">
<path d="M4.24967 12.75C3.84829 12.75 3.51206 12.614 3.24101 12.342C2.96901 12.0709 2.83301 11.7347 2.83301 11.3333C2.83301 10.9319 2.96901 10.5953 3.24101 10.3233C3.51206 10.0522 3.84829 9.91667 4.24967 9.91667H8.49967C8.90106 9.91667 9.23776 10.0522 9.50976 10.3233C9.78081 10.5953 9.91634 10.9319 9.91634 11.3333C9.91634 11.7347 9.78081 12.0709 9.50976 12.342C9.23776 12.614 8.90106 12.75 8.49967 12.75H4.24967ZM4.24967 19.8333C3.84829 19.8333 3.51206 19.6973 3.24101 19.4253C2.96901 19.1543 2.83301 18.8181 2.83301 18.4167C2.83301 18.0153 2.96901 17.6786 3.24101 17.4066C3.51206 17.1355 3.84829 17 4.24967 17H8.49967C8.90106 17 9.23776 17.1355 9.50976 17.4066C9.78081 17.6786 9.91634 18.0153 9.91634 18.4167C9.91634 18.8181 9.78081 19.1543 9.50976 19.4253C9.23776 19.6973 8.90106 19.8333 8.49967 19.8333H4.24967ZM28.1913 25.925L23.7288 21.4625C23.1622 21.8639 22.5426 22.1647 21.8702 22.3649C21.1968 22.5661 20.5177 22.6667 19.833 22.6667C17.8733 22.6667 16.203 21.9758 14.8223 20.5941C13.4405 19.2133 12.7497 17.5431 12.7497 15.5833C12.7497 13.6236 13.4405 11.9529 14.8223 10.5712C16.203 9.19039 17.8733 8.5 19.833 8.5C21.7927 8.5 23.4635 9.19039 24.8452 10.5712C26.226 11.9529 26.9163 13.6236 26.9163 15.5833C26.9163 16.2681 26.8162 16.9471 26.616 17.6205C26.4148 18.2929 26.1136 18.9125 25.7122 19.4792L30.1747 23.9417C30.4344 24.2014 30.5643 24.5319 30.5643 24.9333C30.5643 25.3347 30.4344 25.6653 30.1747 25.925C29.915 26.1847 29.5844 26.3146 29.183 26.3146C28.7816 26.3146 28.4511 26.1847 28.1913 25.925ZM19.833 19.8333C21.0136 19.8333 22.017 19.4201 22.8434 18.5938C23.6698 17.7674 24.083 16.7639 24.083 15.5833C24.083 14.4028 23.6698 13.3993 22.8434 12.5729C22.017 11.7465 21.0136 11.3333 19.833 11.3333C18.6525 11.3333 17.649 11.7465 16.8226 12.5729C15.9962 13.3993 15.583 14.4028 15.583 15.5833C15.583 16.7639 15.9962 17.7674 16.8226 18.5938C17.649 19.4201 18.6525 19.8333 19.833 19.8333ZM4.24967 26.9167C3.84829 26.9167 3.51206 26.7807 3.24101 26.5087C2.96901 26.2376 2.83301 25.9014 2.83301 25.5C2.83301 25.0986 2.96901 24.7624 3.24101 24.4913C3.51206 24.2193 3.84829 24.0833 4.24967 24.0833H15.583C15.9844 24.0833 16.3211 24.2193 16.5931 24.4913C16.8641 24.7624 16.9997 25.0986 16.9997 25.5C16.9997 25.9014 16.8641 26.2376 16.5931 26.5087C16.3211 26.7807 15.9844 26.9167 15.583 26.9167H4.24967Z" fill="black"/>
</svg>
