<svg width="36" height="37" viewBox="0 0 36 37" fill="none" xmlns="http://www.w3.org/2000/svg">
<path d="M31.5 15.998H28.5V6.99805H30V3.99805H6V6.99805H7.5V15.998H4.5C4.10218 15.998 3.72064 16.1561 3.43934 16.4374C3.15804 16.7187 3 17.1002 3 17.498V30.998H33V17.498C33 17.1002 32.842 16.7187 32.5607 16.4374C32.2794 16.1561 31.8978 15.998 31.5 15.998ZM21 27.998V21.998H15V27.998H10.5V6.99805H25.5V27.998H21Z" fill="black"/>
<path d="M13.5 9.99805H16.5V12.998H13.5V9.99805ZM19.5 9.99805H22.5V12.998H19.5V9.99805ZM13.5 15.998H16.5V18.998H13.5V15.998ZM19.5 15.998H22.5V18.998H19.5V15.998Z" fill="black"/>
</svg>
