<svg width="34" height="34" viewBox="0 0 34 34" fill="none" xmlns="http://www.w3.org/2000/svg">
<path d="M25.5003 2.8335H8.50033C6.93774 2.8335 5.66699 4.10425 5.66699 5.66683V29.7502C5.66699 30.1259 5.81625 30.4862 6.08192 30.7519C6.3476 31.0176 6.70794 31.1668 7.08366 31.1668H26.917C27.2927 31.1668 27.6531 31.0176 27.9187 30.7519C28.1844 30.4862 28.3337 30.1259 28.3337 29.7502V5.66683C28.3337 4.10425 27.0629 2.8335 25.5003 2.8335ZM25.5003 28.3335H8.50033V5.66683H25.5003V28.3335Z" fill="black"/>
<path d="M11.333 8.5H15.583V11.3333H11.333V8.5ZM18.4163 8.5H22.6663V11.3333H18.4163V8.5ZM11.333 14.1667H15.583V17H11.333V14.1667ZM18.4163 14.2106H22.6663V17H18.4163V14.2106ZM11.333 19.8333H15.583V22.6667H11.333V19.8333ZM18.4163 19.8333H22.6663V22.6667H18.4163V19.8333Z" fill="black"/>
</svg>
