<svg width="21" height="14" viewBox="0 0 21 14" fill="none" xmlns="http://www.w3.org/2000/svg">
<path fill-rule="evenodd" clip-rule="evenodd" d="M0.5 3.25C0.5 2.58696 0.763392 1.95107 1.23223 1.48223C1.70107 1.01339 2.33696 0.75 3 0.75H12.375C12.9814 0.749929 13.5671 0.970241 14.0231 1.36991C14.4791 1.76958 14.7743 2.32136 14.8538 2.9225L18.7413 1.195C18.9315 1.11021 19.14 1.07433 19.3477 1.09061C19.5554 1.10688 19.7557 1.17481 19.9304 1.2882C20.1052 1.4016 20.2488 1.55687 20.3483 1.7399C20.4478 1.92294 20.4999 2.12793 20.5 2.33625V11.6638C20.4998 11.8719 20.4477 12.0767 20.3483 12.2596C20.2488 12.4425 20.1053 12.5977 19.9308 12.711C19.7562 12.8244 19.5561 12.8924 19.3486 12.9088C19.141 12.9252 18.9327 12.8895 18.7425 12.805L14.8538 11.0775C14.7743 11.6786 14.4791 12.2304 14.0231 12.6301C13.5671 13.0298 12.9814 13.2501 12.375 13.25H3C2.33696 13.25 1.70107 12.9866 1.23223 12.5178C0.763392 12.0489 0.5 11.413 0.5 10.75V3.25ZM14.875 9.71875L19.25 11.6638V2.33625L14.875 4.28125V9.71875ZM3 2C2.66848 2 2.35054 2.1317 2.11612 2.36612C1.8817 2.60054 1.75 2.91848 1.75 3.25V10.75C1.75 11.0815 1.8817 11.3995 2.11612 11.6339C2.35054 11.8683 2.66848 12 3 12H12.375C12.7065 12 13.0245 11.8683 13.2589 11.6339C13.4933 11.3995 13.625 11.0815 13.625 10.75V3.25C13.625 2.91848 13.4933 2.60054 13.2589 2.36612C13.0245 2.1317 12.7065 2 12.375 2H3Z" fill="white"/>
</svg>
