<svg width="32" height="28" viewBox="0 0 32 28" fill="none" xmlns="http://www.w3.org/2000/svg">
<path d="M21.2856 11.9344V21.5766M26.0206 9.00732V24.1593" stroke="white" stroke-width="2" stroke-linecap="round" stroke-linejoin="round"/>
<path d="M1.39868 20.302V13.8148C1.39868 13.3847 1.55832 12.9721 1.84247 12.668C2.12663 12.3639 2.51202 12.193 2.91388 12.193H7.00036C7.29966 12.1931 7.59227 12.0983 7.84129 11.9205L14.1945 7.38599C14.4229 7.22288 14.6884 7.12926 14.9627 7.11515C15.2369 7.10104 15.5096 7.16696 15.7516 7.30587C15.9936 7.44477 16.1957 7.65144 16.3364 7.90379C16.4772 8.15614 16.5512 8.44468 16.5506 8.73856V25.3782C16.5507 25.6718 16.4762 25.9599 16.3353 26.2118C16.1943 26.4637 15.9921 26.6699 15.7502 26.8084C15.5084 26.9469 15.2359 27.0125 14.9619 26.9983C14.6879 26.9841 14.4227 26.8905 14.1945 26.7275L7.84129 22.1946C7.5921 22.0174 7.2995 21.9232 7.00036 21.9238H2.91388C2.51202 21.9238 2.12663 21.7529 1.84247 21.4487C1.55832 21.1446 1.39868 20.7321 1.39868 20.302Z" stroke="white" stroke-width="2"/>
</svg>
